<?xml version="1.0" encoding="UTF-8" standalone="no"?>
<svg width="350px" height="213px" viewBox="0 0 350 213" version="1.1" xmlns="http://www.w3.org/2000/svg" xmlns:xlink="http://www.w3.org/1999/xlink">
    <!-- Generator: Sketch 3.8.2 (29753) - http://www.bohemiancoding.com/sketch -->
    <title>SMF-logo</title>
    <desc>Created with Sketch.</desc>
    <defs></defs>
    <g id="Page-1" stroke="none" stroke-width="1" fill="none" fill-rule="evenodd">
        <g id="SMF-logo">
            <path d="M105.094851,192.831978 C105,192.831978 104.146341,194.823848 104.146341,195.01355 C103.95664,195.392954 103.672087,195.487805 103.387534,195.298103 L102.154472,194.728997 C101.869919,194.634146 101.775068,194.349593 101.869919,193.97019 L104.620596,187.710027 C104.810298,187.330623 105.094851,187.235772 105.379404,187.425474 L106.802168,188.089431 C107.086721,188.184282 107.276423,188.563686 107.086721,188.848238 L106.707317,189.701897 C106.707317,189.701897 106.233062,193.685637 110.406504,195.582656 C113.062331,196.815718 114.95935,196.151762 115.907859,194.159892 C117.710027,190.081301 105.474255,187.140921 108.699187,179.932249 C110.311653,176.233062 114.01084,175.189702 117.615176,176.802168 C120.460705,178.03523 121.598916,179.837398 121.883469,181.544715 L121.97832,181.544715 C121.97832,181.544715 122.547425,180.0271 122.547425,179.932249 C122.737127,179.552846 123.02168,179.457995 123.306233,179.647696 L124.539295,180.216802 C124.823848,180.311653 124.918699,180.596206 124.823848,180.97561 L122.262873,186.761518 C122.073171,187.140921 121.788618,187.235772 121.504065,187.04607 L120.081301,186.382114 C119.796748,186.287263 119.607046,185.907859 119.796748,185.623306 L120.081301,185.054201 C120.555556,183.915989 120.365854,181.165312 116.95122,179.647696 C115.149051,178.794038 112.872629,179.173442 111.924119,181.260163 C109.837398,185.907859 122.452575,188.563686 119.322493,195.582656 C117.99458,198.617886 114.769648,200.609756 109.837398,198.333333 C105.758808,196.720867 105.094851,193.685637 105.094851,192.831978 Z M135.731707,204.688347 C135.921409,204.9729 135.731707,205.257453 135.447154,205.542005 C134.9729,205.826558 133.265583,206.775068 130.98916,206.111111 C127.00542,204.9729 125.392954,201.747967 126.815718,196.815718 L130.135501,185.338753 L127.95393,184.674797 C127.669377,184.579946 127.479675,184.295393 127.574526,183.915989 L128.143631,182.113821 C128.238482,181.734417 128.523035,181.639566 128.902439,181.734417 L131.084011,182.398374 L132.411924,177.940379 C132.506775,177.560976 132.791328,177.371274 133.170732,177.466125 L135.352304,178.130081 C135.636856,178.224932 135.826558,178.509485 135.731707,178.888889 L134.403794,183.346883 L139.430894,184.769648 C139.715447,184.864499 139.905149,185.149051 139.810298,185.528455 L139.241192,187.330623 C139.146341,187.710027 138.861789,187.804878 138.482385,187.710027 L133.455285,186.287263 L130.135501,197.669377 C129.281843,200.609756 130.135501,202.411924 132.222222,203.075881 C133.360434,203.455285 134.308943,202.98103 134.593496,202.886179 C134.9729,202.696477 135.162602,202.791328 135.257453,203.170732 L135.731707,204.688347 Z M156.883469,210.853659 C155.745257,210.663957 155.176152,210.094851 155.460705,208.672087 L155.745257,206.96477 L155.650407,206.96477 C155.081301,207.913279 153.089431,210.569106 148.726287,209.810298 C144.363144,209.146341 142.181572,205.636856 142.845528,200.894309 L144.647696,189.322493 L142.371274,188.943089 C142.086721,188.848238 141.897019,188.658537 141.99187,188.373984 L142.276423,186.476965 C142.371274,186.097561 142.560976,186.00271 142.845528,186.00271 L146.734417,186.571816 C147.872629,186.761518 148.441734,187.330623 148.157182,188.753388 L146.260163,200.609756 C145.691057,204.02439 146.829268,206.300813 149.864499,206.775068 C153.943089,207.439024 155.840108,203.929539 155.840108,203.834688 L157.737127,191.504065 L155.555556,191.124661 C155.271003,191.02981 155.081301,190.840108 155.176152,190.555556 L155.460705,188.658537 C155.555556,188.279133 155.745257,188.184282 156.02981,188.184282 L161.056911,188.943089 C161.341463,189.03794 161.531165,189.227642 161.436314,189.512195 L158.495935,208.102981 L160.772358,208.482385 C161.056911,208.577236 161.246612,208.766938 161.246612,209.146341 L160.96206,211.04336 C160.867209,211.422764 160.677507,211.517615 160.392954,211.517615 L156.883469,210.853659 Z M184.295393,211.99187 C183.062331,211.99187 182.493225,211.517615 182.493225,210.094851 L182.493225,207.533875 C181.734417,209.715447 179.363144,212.276423 175.569106,212.276423 C170.067751,212.276423 166.368564,207.628726 166.368564,200.514905 C166.368564,193.780488 170.162602,189.132791 175.758808,189.227642 C179.457995,189.227642 181.544715,191.504065 182.398374,193.780488 L182.398374,192.262873 L182.493225,182.398374 L180.216802,182.398374 C179.932249,182.398374 179.647696,182.208672 179.647696,181.829268 L179.647696,179.837398 C179.647696,179.457995 179.837398,179.268293 180.216802,179.268293 L185.338753,179.268293 C185.623306,179.268293 185.813008,179.457995 185.813008,179.837398 L185.623306,208.95664 L187.899729,208.95664 C188.184282,208.95664 188.373984,209.146341 188.373984,209.525745 L188.373984,211.517615 C188.373984,211.897019 188.184282,212.086721 187.899729,212.086721 L184.295393,211.99187 Z M182.398374,200.799458 C182.398374,195.487805 179.552846,192.452575 176.233062,192.452575 C172.723577,192.452575 169.878049,195.487805 169.783198,200.609756 C169.783198,205.636856 172.439024,209.051491 176.138211,209.051491 C179.647696,209.146341 182.398374,205.921409 182.398374,200.799458 Z M194.539295,211.233062 C194.254743,211.233062 193.97019,211.138211 193.97019,210.758808 L193.780488,208.861789 C193.780488,208.482385 193.875339,208.292683 194.254743,208.292683 L196.531165,208.00813 L194.634146,191.788618 L192.357724,192.073171 C192.073171,192.073171 191.788618,191.97832 191.788618,191.598916 L191.598916,189.701897 C191.598916,189.322493 191.693767,189.132791 192.073171,189.132791 L197.195122,188.563686 C197.479675,188.563686 197.669377,188.658537 197.764228,189.03794 L199.945799,207.723577 L202.127371,207.439024 C202.411924,207.439024 202.696477,207.533875 202.696477,207.913279 L202.886179,209.810298 C202.886179,210.189702 202.791328,210.379404 202.411924,210.379404 L194.539295,211.233062 Z M195.487805,186.192412 C194.254743,186.382114 193.116531,185.338753 192.926829,184.01084 C192.737127,182.588076 193.685637,181.355014 194.918699,181.165312 C196.151762,180.97561 197.384824,182.113821 197.479675,183.441734 C197.669377,184.864499 196.720867,186.00271 195.487805,186.192412 Z M205.352304,198.807588 C203.550136,191.883469 206.869919,186.571816 212.466125,185.149051 C217.96748,183.726287 223.468835,186.761518 225.176152,193.685637 C226.97832,200.514905 223.848238,206.01626 218.157182,207.533875 C212.560976,208.95664 207.154472,205.731707 205.352304,198.807588 Z M221.856369,194.539295 C220.528455,189.512195 216.639566,187.330623 213.224932,188.184282 C209.715447,189.03794 207.439024,192.926829 208.672087,197.95393 C210,202.886179 213.794038,205.257453 217.303523,204.308943 C221.00271,203.455285 223.184282,199.566396 221.856369,194.539295 Z M236.273713,197.859079 C236.178862,197.859079 237.317073,199.850949 237.411924,199.945799 C237.601626,200.230352 237.506775,200.609756 237.222222,200.704607 L235.98916,201.368564 C235.704607,201.558266 235.420054,201.463415 235.230352,201.084011 L232.00542,195.108401 C231.815718,194.823848 231.910569,194.444444 232.195122,194.349593 L233.617886,193.590786 C233.902439,193.401084 234.186992,193.495935 234.376694,193.875339 L234.850949,194.634146 C234.850949,194.634146 237.696477,197.479675 241.775068,195.298103 C244.336043,193.875339 245.094851,192.073171 244.051491,190.081301 C241.96477,186.097561 232.100271,194.065041 228.401084,187.04607 C226.504065,183.441734 227.926829,179.932249 231.436314,178.130081 C234.186992,176.707317 236.273713,176.897019 237.791328,177.750678 L237.886179,177.750678 L237.03252,176.327913 C236.842818,176.04336 236.937669,175.663957 237.222222,175.569106 L238.360434,174.905149 C238.644986,174.715447 238.929539,174.810298 239.119241,175.189702 L242.059621,180.785908 C242.249322,181.070461 242.154472,181.449864 241.869919,181.544715 L240.447154,182.303523 C240.162602,182.493225 239.878049,182.398374 239.688347,182.01897 L239.403794,181.449864 C238.834688,180.311653 236.463415,178.888889 233.143631,180.596206 C231.341463,181.544715 230.298103,183.536585 231.341463,185.528455 C233.712737,189.98645 243.577236,181.734417 247.181572,188.468835 C248.794038,191.409214 248.319783,195.108401 243.577236,197.669377 C239.783198,199.661247 236.937669,198.333333 236.273713,197.859079 Z" id="studios" fill="#FFFFFF"></path>
            <path d="M280.82238,131.675106 C280.745514,131.660217 280.66086,131.653117 280.569106,131.653117 L273.265583,131.653117 L273.265583,109.173442 C273.265583,105.379404 275.162602,103.482385 278.197832,103.482385 C279.905149,103.482385 281.04336,104.336043 281.327913,104.525745 C281.612466,104.810298 281.99187,104.715447 282.276423,104.430894 L283.604336,102.628726 C283.888889,102.344173 283.794038,102.059621 283.414634,101.680217 C282.845528,101.205962 280.948509,99.403794 277.628726,99.403794 C271.937669,99.403794 268.428184,102.628726 268.428184,109.078591 L268.428184,131.558266 L265.203252,131.558266 C264.728997,131.558266 264.444444,131.747967 264.444444,132.222222 L264.444444,134.688347 C264.444444,135.162602 264.728997,135.352304 265.203252,135.352304 L268.428184,135.352304 L268.428184,155.745257 L265.298103,155.745257 C264.823848,155.745257 264.539295,155.934959 264.539295,156.409214 L264.539295,158.875339 C264.539295,159.349593 264.823848,159.539295 265.298103,159.539295 L265.298103,159.634146 L278.197832,159.634146 C278.672087,159.634146 278.861789,159.444444 278.861789,158.97019 L278.861789,156.504065 C278.861789,156.02981 278.672087,155.840108 278.197832,155.840108 L273.170732,155.840108 L273.170732,135.447154 L280.569106,135.447154 C280.776564,135.447154 280.947721,135.410854 281.074639,135.330315 C281.151505,135.345203 281.236159,135.352304 281.327913,135.352304 L284.552846,135.352304 L284.552846,155.745257 L281.422764,155.745257 C280.948509,155.745257 280.663957,155.934959 280.663957,156.409214 L280.663957,158.875339 C280.663957,159.349593 280.948509,159.539295 281.422764,159.539295 L281.422764,159.634146 L294.417344,159.634146 C294.891599,159.634146 295.081301,159.444444 295.081301,158.97019 L295.081301,156.504065 C295.081301,156.02981 294.891599,155.840108 294.417344,155.840108 L289.390244,155.840108 L289.390244,135.447154 L296.693767,135.447154 C297.168022,135.447154 297.452575,135.257453 297.452575,134.783198 L297.452575,132.317073 C297.452575,131.842818 297.168022,131.653117 296.693767,131.653117 L289.390244,131.653117 L289.390244,128.143631 C289.390244,124.349593 291.287263,122.452575 294.322493,122.452575 C296.02981,122.452575 297.168022,123.306233 297.452575,123.495935 C297.737127,123.780488 298.116531,123.685637 298.401084,123.401084 L299.728997,121.598916 C300.01355,121.314363 299.918699,121.02981 299.539295,120.650407 C298.97019,120.176152 297.073171,118.373984 293.753388,118.373984 C288.062331,118.373984 284.552846,121.598916 284.552846,128.04878 L284.552846,131.558266 L281.327913,131.558266 C281.120455,131.558266 280.949298,131.594566 280.82238,131.675106 Z M122.610997,131.675106 C122.534131,131.660217 122.449478,131.653117 122.357724,131.653117 L115.054201,131.653117 L115.054201,109.173442 C115.054201,105.379404 116.95122,103.482385 119.98645,103.482385 C121.693767,103.482385 122.831978,104.336043 123.116531,104.525745 C123.401084,104.810298 123.780488,104.715447 124.065041,104.430894 L125.392954,102.628726 C125.677507,102.344173 125.582656,102.059621 125.203252,101.680217 C124.634146,101.205962 122.737127,99.403794 119.417344,99.403794 C113.726287,99.403794 110.216802,102.628726 110.216802,109.078591 L110.216802,131.558266 L106.99187,131.558266 C106.517615,131.558266 106.233062,131.747967 106.233062,132.222222 L106.233062,134.688347 C106.233062,135.162602 106.517615,135.352304 106.99187,135.352304 L110.216802,135.352304 L110.216802,155.745257 L107.086721,155.745257 C106.612466,155.745257 106.327913,155.934959 106.327913,156.409214 L106.327913,158.875339 C106.327913,159.349593 106.612466,159.539295 107.086721,159.539295 L107.086721,159.634146 L120.081301,159.634146 C120.555556,159.634146 120.745257,159.444444 120.745257,158.97019 L120.745257,156.504065 C120.745257,156.02981 120.555556,155.840108 120.081301,155.840108 L115.054201,155.840108 L115.054201,135.447154 L122.357724,135.447154 C122.565181,135.447154 122.736339,135.410854 122.863257,135.330315 C122.940123,135.345203 123.024777,135.352304 123.116531,135.352304 L126.341463,135.352304 L126.341463,155.745257 L123.211382,155.745257 C122.737127,155.745257 122.452575,155.934959 122.452575,156.409214 L122.452575,158.875339 C122.452575,159.349593 122.737127,159.539295 123.211382,159.539295 L123.211382,159.634146 L136.205962,159.634146 C136.680217,159.634146 136.869919,159.444444 136.869919,158.97019 L136.869919,156.504065 C136.869919,156.02981 136.680217,155.840108 136.205962,155.840108 L131.178862,155.840108 L131.178862,135.447154 L138.482385,135.447154 C138.95664,135.447154 139.241192,135.257453 139.241192,134.783198 L139.241192,132.317073 C139.241192,131.842818 138.95664,131.653117 138.482385,131.653117 L131.178862,131.653117 L131.178862,128.143631 C131.178862,124.349593 133.075881,122.452575 136.111111,122.452575 C137.818428,122.452575 138.95664,123.306233 139.241192,123.495935 C139.525745,123.780488 139.905149,123.685637 140.189702,123.401084 L141.517615,121.598916 C141.802168,121.314363 141.707317,121.02981 141.327913,120.650407 C140.758808,120.176152 138.861789,118.373984 135.542005,118.373984 C129.850949,118.373984 126.341463,121.598916 126.341463,128.04878 L126.341463,131.558266 L123.116531,131.558266 C122.909073,131.558266 122.737916,131.594566 122.610997,131.675106 Z M0.758807588,159.349593 C0.284552846,159.349593 0,158.97019 0,158.306233 L0,138.00813 C0,137.344173 0.284552846,136.869919 0.758807588,136.869919 L4.36314363,136.869919 C4.74254743,136.869919 5.02710027,137.344173 5.02710027,138.00813 L5.02710027,139.810298 C5.02710027,141.138211 8.06233062,152.899729 17.1680217,152.899729 C22.9539295,152.899729 26.4634146,149.105691 26.4634146,142.371274 C26.4634146,128.04878 1.23306233,135.636856 1.23306233,113.346883 C1.23306233,103.861789 6.2601626,96.5582656 14.5121951,96.5582656 C20.3929539,96.5582656 23.8075881,99.5934959 25.799458,103.387534 L25.704607,97.9810298 C25.704607,97.3170732 25.9891599,96.9376694 26.4634146,96.9376694 L29.6883469,96.9376694 C30.1626016,96.9376694 30.3523035,97.3170732 30.3523035,97.9810298 L30.3523035,116.856369 C30.3523035,117.520325 30.1626016,117.899729 29.6883469,117.899729 L26.0840108,117.899729 C25.6097561,117.899729 25.4200542,117.520325 25.4200542,116.856369 L25.4200542,114.390244 C25.4200542,110.785908 22.7642276,103.577236 15.0813008,103.577236 C9.95934959,103.577236 6.73441734,107.750678 6.73441734,113.252033 C6.73441734,128.333333 32.4390244,120.934959 32.4390244,142.276423 C32.4390244,151.666667 28.2655827,159.823848 18.1165312,159.823848 C10.2439024,159.823848 5.97560976,153.279133 4.55284553,149.674797 L4.64769648,158.211382 C4.64769648,158.875339 4.45799458,159.254743 3.98373984,159.254743 L0.758807588,159.254743 L0.758807588,159.349593 Z M79.3902439,159.539295 C77.6829268,159.539295 76.9241192,158.875339 76.9241192,157.168022 L76.9241192,142.181572 C76.9241192,137.913279 74.9322493,135.257453 70.7588076,135.257453 C66.5853659,135.257453 64.5934959,137.913279 63.7398374,139.146341 C63.9295393,139.810298 64.1192412,140.663957 64.1192412,141.422764 L64.1192412,155.745257 L67.3441734,155.745257 C67.8184282,155.745257 68.0081301,155.934959 68.0081301,156.409214 L68.0081301,158.875339 C68.0081301,159.349593 67.7235772,159.539295 67.3441734,159.539295 L56.4363144,159.539295 C55.9620596,159.539295 55.6775068,159.349593 55.6775068,158.875339 L55.6775068,156.409214 C55.6775068,155.934959 55.9620596,155.745257 56.4363144,155.745257 L59.4715447,155.745257 L59.4715447,142.181572 C59.4715447,137.913279 57.3848238,135.257453 53.2113821,135.257453 C47.4254743,135.257453 45.6233062,140.189702 45.6233062,140.189702 L45.6233062,155.745257 L48.3739837,155.745257 C48.8482385,155.745257 49.0379404,155.934959 49.0379404,156.409214 L49.0379404,158.875339 C49.0379404,159.349593 48.7533875,159.539295 48.3739837,159.539295 L37.7506775,159.539295 C37.2764228,159.539295 36.9918699,159.349593 36.9918699,158.875339 L36.9918699,156.409214 C36.9918699,155.934959 37.2764228,155.745257 37.7506775,155.745257 L40.8807588,155.745257 L40.8807588,135.352304 L37.7506775,135.352304 C37.2764228,135.352304 36.9918699,135.162602 36.9918699,134.688347 L36.9918699,132.222222 C36.9918699,131.747967 37.2764228,131.558266 37.7506775,131.558266 L43.3468835,131.558266 C44.5799458,131.558266 45.1490515,131.937669 45.1490515,133.265583 L45.0542005,136.111111 L45.2439024,136.111111 C45.9078591,134.9729 48.2791328,131.178862 54.4444444,131.178862 C58.5230352,131.178862 61.4634146,132.98103 62.8861789,135.921409 C63.7398374,134.688347 66.2059621,131.178862 72.0867209,131.178862 C78.2520325,131.178862 81.6666667,135.067751 81.6666667,141.04336 L81.7615176,155.745257 L84.9864499,155.745257 C85.4607046,155.745257 85.7452575,155.934959 85.7452575,156.409214 L85.7452575,158.875339 C85.7452575,159.349593 85.4607046,159.539295 84.9864499,159.539295 L79.3902439,159.539295 L79.3902439,159.539295 Z M90.298103,159.539295 C89.8238482,159.539295 89.5392954,159.349593 89.5392954,158.875339 L89.5392954,156.409214 C89.5392954,155.934959 89.8238482,155.745257 90.298103,155.745257 L93.4281843,155.745257 L93.4281843,135.352304 L90.298103,135.352304 C89.8238482,135.352304 89.5392954,135.162602 89.5392954,134.688347 L89.5392954,132.222222 C89.5392954,131.747967 89.8238482,131.558266 90.298103,131.558266 L97.5067751,131.558266 C97.9810298,131.558266 98.1707317,131.747967 98.1707317,132.222222 L98.1707317,155.745257 L101.205962,155.745257 C101.680217,155.745257 101.96477,155.934959 101.96477,156.409214 L101.96477,158.875339 C101.96477,159.349593 101.680217,159.539295 101.205962,159.539295 L90.298103,159.539295 L90.298103,159.539295 Z M95.704607,128.523035 C93.902439,128.523035 92.4796748,127.195122 92.4796748,125.392954 C92.4796748,123.590786 93.902439,122.168022 95.704607,122.168022 C97.5067751,122.168022 98.9295393,123.685637 98.9295393,125.392954 C98.9295393,127.195122 97.5067751,128.523035 95.704607,128.523035 Z M145.501355,146.165312 C145.785908,152.804878 150.433604,156.02981 154.98645,156.02981 C159.918699,156.02981 163.238482,152.99458 163.99729,151.666667 C164.281843,151.287263 164.661247,151.192412 165.04065,151.476965 L166.558266,152.99458 C166.937669,153.373984 167.03252,153.658537 166.747967,154.03794 C165.98916,155.271003 162.100271,160.01355 154.607046,160.01355 C146.924119,160.01355 140.569106,154.607046 140.569106,145.501355 C140.569106,136.300813 147.208672,131.178862 154.03794,131.178862 C162.195122,131.178862 166.937669,136.585366 166.747967,145.406504 C166.747967,145.880759 166.463415,146.165312 165.98916,146.165312 L145.501355,146.165312 L145.501355,146.165312 Z M162.100271,142.655827 C161.910569,138.00813 159.159892,134.878049 154.227642,134.878049 C150.338753,134.878049 146.355014,137.154472 145.596206,142.655827 L162.100271,142.655827 Z M196.151762,159.539295 C194.539295,159.539295 193.685637,158.875339 193.685637,157.168022 L193.685637,142.181572 C193.685637,137.913279 191.598916,135.257453 187.425474,135.257453 C181.639566,135.257453 179.932249,140 179.837398,140.094851 L179.837398,155.745257 L182.872629,155.745257 C183.346883,155.745257 183.631436,155.934959 183.631436,156.409214 L183.631436,158.875339 C183.631436,159.349593 183.346883,159.539295 182.872629,159.539295 L171.96477,159.539295 C171.490515,159.539295 171.205962,159.349593 171.205962,158.875339 L171.205962,156.409214 C171.205962,155.934959 171.490515,155.745257 171.96477,155.745257 L175.094851,155.745257 L175.094851,135.352304 L171.96477,135.352304 C171.490515,135.352304 171.205962,135.162602 171.205962,134.688347 L171.205962,132.222222 C171.205962,131.747967 171.490515,131.558266 171.96477,131.558266 L178.604336,131.558266 C179.078591,131.558266 179.363144,131.747967 179.363144,132.222222 L179.268293,136.111111 L179.457995,136.111111 C180.121951,134.9729 182.493225,131.178862 188.658537,131.178862 C194.823848,131.178862 198.333333,135.067751 198.428184,141.04336 L198.428184,155.745257 L201.653117,155.745257 C202.127371,155.745257 202.411924,155.934959 202.411924,156.409214 L202.411924,158.875339 C202.411924,159.349593 202.127371,159.539295 201.653117,159.539295 L196.151762,159.539295 L196.151762,159.539295 Z M207.154472,159.349593 C206.680217,159.349593 206.395664,158.97019 206.395664,158.306233 L206.395664,153.848238 C206.395664,153.184282 206.585366,152.804878 207.154472,152.804878 L211.517615,152.804878 L211.517615,103.577236 L207.154472,103.577236 C206.680217,103.577236 206.395664,103.197832 206.395664,102.533875 L206.395664,98.0758808 C206.395664,97.4119241 206.585366,97.0325203 207.154472,97.0325203 L236.368564,97.0325203 C236.842818,97.0325203 237.127371,97.4119241 237.127371,98.0758808 L237.127371,112.01897 C237.127371,112.682927 236.842818,113.157182 236.368564,113.157182 L233.333333,113.157182 C232.859079,113.157182 232.669377,112.682927 232.669377,112.01897 L232.669377,103.482385 L216.544715,103.482385 L216.544715,125.01355 L229.918699,125.01355 C230.392954,125.01355 230.677507,125.392954 230.677507,126.056911 L230.677507,130.514905 C230.677507,131.178862 230.392954,131.558266 229.918699,131.558266 L216.544715,131.558266 L216.544715,152.804878 L222.99458,152.804878 C223.468835,152.804878 223.658537,153.184282 223.658537,153.848238 L223.658537,158.306233 C223.658537,158.97019 223.468835,159.349593 222.99458,159.349593 L207.154472,159.349593 L207.154472,159.349593 Z M238.644986,146.165312 C238.929539,152.804878 243.577236,156.02981 248.130081,156.02981 C253.062331,156.02981 256.382114,152.99458 257.140921,151.666667 C257.425474,151.287263 257.804878,151.192412 258.184282,151.476965 L259.701897,152.99458 C260.081301,153.373984 260.176152,153.658537 259.891599,154.03794 C259.132791,155.271003 255.243902,160.01355 247.750678,160.01355 C240.067751,160.01355 233.712737,154.607046 233.712737,145.501355 C233.712737,136.300813 240.352304,131.178862 247.181572,131.178862 C255.338753,131.178862 260.081301,136.585366 259.891599,145.406504 C259.891599,145.880759 259.607046,146.165312 259.132791,146.165312 L238.644986,146.165312 L238.644986,146.165312 Z M255.243902,142.655827 C255.054201,138.00813 252.303523,134.878049 247.371274,134.878049 C243.482385,134.878049 239.498645,137.154472 238.739837,142.655827 L255.243902,142.655827 Z M302.764228,146.165312 C303.04878,152.804878 307.696477,156.02981 312.249322,156.02981 C317.181572,156.02981 320.501355,152.99458 321.260163,151.666667 C321.544715,151.287263 321.924119,151.192412 322.303523,151.476965 L323.821138,152.99458 C324.200542,153.373984 324.295393,153.658537 324.01084,154.03794 C323.252033,155.271003 319.363144,160.01355 311.869919,160.01355 C304.186992,160.01355 297.831978,154.607046 297.831978,145.501355 C297.831978,136.300813 304.471545,131.178862 311.300813,131.178862 C319.457995,131.178862 324.200542,136.585366 324.01084,145.406504 C324.01084,145.880759 323.726287,146.165312 323.252033,146.165312 L302.764228,146.165312 L302.764228,146.165312 Z M319.363144,142.655827 C319.173442,138.00813 316.422764,134.878049 311.490515,134.878049 C307.601626,134.878049 303.617886,137.154472 302.859079,142.655827 L319.363144,142.655827 Z M329.322493,159.539295 C328.848238,159.539295 328.563686,159.349593 328.563686,158.875339 L328.563686,156.409214 C328.563686,155.934959 328.848238,155.745257 329.322493,155.745257 L332.452575,155.745257 L332.452575,135.352304 L329.322493,135.352304 C328.848238,135.352304 328.563686,135.162602 328.563686,134.688347 L328.563686,132.222222 C328.563686,131.747967 328.848238,131.558266 329.322493,131.558266 L335.96206,131.558266 C336.436314,131.558266 336.720867,131.747967 336.720867,132.222222 L336.720867,139.336043 L336.910569,139.336043 C336.910569,139.336043 338.807588,131.463415 349.051491,131.463415 C349.525745,131.463415 349.810298,131.747967 349.810298,132.222222 L349.810298,135.257453 C349.810298,135.731707 349.525745,136.01626 349.051491,136.01626 L347.818428,136.01626 C340.894309,136.01626 337.100271,141.327913 337.100271,146.260163 L337.100271,155.840108 L340.135501,155.840108 C340.609756,155.840108 340.894309,156.02981 340.894309,156.504065 L340.894309,158.97019 C340.894309,159.444444 340.609756,159.634146 340.135501,159.634146 L329.322493,159.634146 L329.322493,159.539295 Z" id="SmiffenFeffer" fill="#FFFFFF"></path>
            <path d="M95.704607,101.111111 C95.704607,101.111111 124.159892,77.8726287 171.300813,77.8726287 C218.346883,77.8726287 255.718157,101.111111 255.718157,101.111111" id="hill" stroke="#FFFFFF" stroke-width="3"></path>
            <path d="M215.501355,22.0054201 C214.742547,21.8157182 214.457995,19.8238482 214.552846,18.5907859 L214.552846,17.4525745 C214.457995,16.7886179 213.794038,16.4092141 213.224932,16.598916 C212.560976,16.6937669 212.181572,17.3577236 212.276423,17.9268293 L212.276423,18.401084 C211.897019,21.0569106 210.853659,21.0569106 210.474255,21.0569106 L210.284553,21.0569106 L209.715447,21.0569106 C208.577236,21.0569106 207.913279,21.4363144 207.723577,22.195122 C207.533875,22.8590786 207.818428,23.6178862 208.672087,24.1869919 C210.379404,25.6097561 211.138211,26.4634146 211.422764,26.8428184 C211.422764,27.0325203 211.327913,27.2222222 211.327913,27.5067751 C210.189702,33.0081301 207.723577,35.2845528 205.731707,35.7588076 C204.308943,36.0433604 202.886179,35.3794038 201.747967,33.7669377 C200.704607,32.2493225 199.566396,32.0596206 198.712737,32.1544715 C195.772358,32.6287263 193.495935,38.9837398 192.547425,42.0189702 C185.338753,41.2601626 162.384824,43.3468835 158.495935,43.6314363 C152.425474,37.6558266 150.813008,22.3848238 150.718157,21.5311653 C150.623306,10.2439024 158.780488,2.75067751 158.875339,2.65582656 C159.349593,2.18157182 159.349593,1.51761518 158.97019,1.04336043 C158.590786,0.569105691 157.831978,0.569105691 157.357724,0.948509485 C157.073171,1.23306233 152.235772,5.69105691 149.769648,12.9945799 C149.200542,10.2439024 148.346883,7.20867209 147.398374,6.0704607 C147.01897,5.59620596 146.260163,5.50135501 145.785908,5.88075881 C145.311653,6.2601626 145.216802,7.01897019 145.596206,7.49322493 C146.449864,8.53658537 147.588076,13.6585366 148.252033,17.3577236 L124.918699,25.799458 L128.04878,42.4932249 L150.907859,34.3360434 C152.235772,38.4146341 154.03794,42.5880759 156.788618,45.2439024 C155.745257,52.2628726 156.02981,62.4119241 156.124661,63.7398374 C155.840108,64.8780488 153.848238,73.604336 148.821138,77.6829268 C148.346883,78.0623306 148.252033,78.8211382 148.631436,79.295393 C149.01084,79.7696477 149.769648,79.8644986 150.243902,79.4850949 C154.132791,76.3550136 156.314363,71.1382114 157.452575,67.6287263 C158.97019,71.4227642 161.720867,77.303523 164.756098,79.4850949 C164.945799,79.6747967 165.230352,79.6747967 165.420054,79.6747967 C165.799458,79.6747967 166.178862,79.4850949 166.368564,79.200542 C166.747967,78.7262873 166.653117,77.9674797 166.084011,77.5880759 C163.333333,75.596206 160.392954,68.9566396 158.97019,65.0677507 L190.934959,67.8184282 C188.658537,70.4742547 184.674797,75.501355 184.390244,78.3468835 C184.295393,79.0108401 184.769648,79.5799458 185.433604,79.6747967 L185.528455,79.6747967 C186.097561,79.6747967 186.571816,79.200542 186.666667,78.6314363 C186.856369,76.6395664 190.271003,72.0867209 193.02168,68.9566396 C194.159892,71.2330623 195.96206,75.501355 195.96206,78.5365854 C195.96206,79.200542 196.436314,79.6747967 197.100271,79.6747967 C197.764228,79.6747967 198.238482,79.200542 198.238482,78.5365854 C198.238482,74.2682927 195.298103,68.3875339 194.444444,66.7750678 C196.151762,59.8509485 194.634146,45.4336043 194.349593,43.3468835 C195.487805,39.2682927 197.669377,34.6205962 198.902439,34.4308943 C199.092141,34.4308943 199.376694,34.6205962 199.566396,35 C201.178862,37.3712737 203.550136,38.5094851 205.921409,38.0352304 C209.336043,37.3712737 212.181572,33.5772358 213.319783,27.9810298 C213.414634,27.601626 213.414634,27.0325203 213.604336,26.3685637 C213.699187,26.2737127 214.078591,26.0840108 214.742547,25.8943089 C216.449864,25.5149051 217.682927,25.1355014 217.682927,23.99729 C217.777778,22.6693767 216.639566,22.3848238 215.501355,22.0054201 Z M141.707317,35.0948509 C141.802168,33.4823848 141.707317,32.3441734 140.853659,30.7317073 C139.810298,28.8346883 138.95664,27.601626 137.154472,27.1273713 C134.783198,26.5582656 131.937669,27.5067751 130.894309,29.498645 C130.704607,29.9728997 130.704607,30.8265583 130.704607,31.2059621 C130.609756,31.7750678 129.945799,32.0596206 129.092141,31.9647696 C128.902439,31.9647696 128.617886,31.7750678 128.333333,31.4905149 L127.574526,27.3170732 L148.441734,19.8238482 L148.441734,21.5311653 L148.441734,21.6260163 C148.441734,22.0054201 148.915989,26.7479675 150.338753,32.0596206 L141.707317,35.0948509 Z M188.468835,57.8590786 C188.373984,58.6178862 187.804878,59.3766938 187.235772,60.1355014 C186.856369,60.704607 186.382114,61.2737127 186.097561,61.9376694 C185.528455,63.1707317 185.338753,64.0243902 185.338753,65.0677507 L173.577236,64.0243902 C173.577236,63.4552846 173.482385,62.9810298 173.197832,62.5067751 C172.533875,61.3685637 171.205962,60.6097561 169.878049,60.5149051 C168.834688,60.4200542 167.886179,60.799458 166.937669,60.9891599 C165.799458,61.3685637 164.850949,61.6531165 163.617886,61.2737127 C162.574526,60.9891599 162.289973,59.7560976 162.00542,58.0487805 C161.720867,56.6260163 161.436314,55.1084011 160.203252,54.4444444 C159.728997,54.1598916 159.065041,54.0650407 158.401084,54.2547425 C158.495935,51.4092141 158.685637,48.3739837 158.97019,45.8130081 C161.720867,45.5284553 169.9729,44.8644986 177.750678,44.3902439 C177.466125,44.6747967 177.181572,45.0542005 176.897019,45.4336043 C175.663957,47.2357724 175.474255,49.4173442 175.569106,50.9349593 C175.663957,53.6856369 176.897019,56.0569106 178.699187,57.100271 C179.647696,57.6693767 181.355014,58.1436314 183.536585,57.100271 C184.01084,56.9105691 184.390244,56.5311653 184.769648,56.2466125 C185.718157,55.4878049 186.476965,55.1084011 187.140921,55.298103 C188.089431,55.6775068 188.563686,56.9105691 188.468835,57.8590786 Z" id="feffer" fill="#FFFFFF"></path>
        </g>
    </g>
</svg>
